# xmcd
#
# Track frame offsets: 
#        150
#        15464
#        36408
#        58357
#        77093
#        102122
#        115159
#        133341
#        151948
#        172232
#        191737
#        204823
#        220179
#        232937
#        247832
#        266925
#
# Disc length: 3798 seconds
#
# Revision: 0
# Processed by: cddbd v1.5.2PL0 Copyright (c) Steve Scherf et al.
# Submitted via: ExactAudioCopy v0.99pb5
#
DISCID=e00ed410
DTITLE=Henrik Freischlader Band - The Soul Of HFB
DYEAR=2012
DGENRE=Blues
TTITLE0=Blues Music
TTITLE1=Someone Like Me
TTITLE2=Nothin' To Lose
TTITLE3=As Long As
TTITLE4=Did You Right
TTITLE5=Livin' It Up
TTITLE6=Is It Right
TTITLE7=Not Of That Kind
TTITLE8=Tired Of Beggin'
TTITLE9=The Blues
TTITLE10=You
TTITLE11=Busy
TTITLE12=She Ain't Got The Blues
TTITLE13=Fire
TTITLE14=Keep Playin'
TTITLE15=Disappointed Woman
EXTD=
EXTT0=
EXTT1=
EXTT2=
EXTT3=
EXTT4=
EXTT5=
EXTT6=
EXTT7=
EXTT8=
EXTT9=
EXTT10=
EXTT11=
EXTT12=
EXTT13=
EXTT14=
EXTT15=
PLAYORDER=
